<?xml version="1.0" encoding="iso-8859-1"?>
<!-- Generator: Adobe Illustrator 19.0.0, SVG Export Plug-In . SVG Version: 6.00 Build 0)  -->
<svg version="1.1" id="Layer_1" xmlns="http://www.w3.org/2000/svg" xmlns:xlink="http://www.w3.org/1999/xlink" x="0px" y="0px"
	 viewBox="0 0 512.002 512.002" style="enable-background:new 0 0 512.002 512.002;" xml:space="preserve">
<g>
	<g>
		<path d="M353.193,193.771c-0.049,0-0.097,0.004-0.145,0.004H301.37c-5.193,0-9.4,4.209-9.4,9.4c0,5.191,4.207,9.4,9.4,9.4h14.433
			c-5.797,7.771-9.232,17.4-9.232,27.818c0,10.419,3.437,20.051,9.236,27.823h-119.61c5.798-7.772,9.236-17.403,9.236-27.823
			c0-5.191-4.207-9.4-9.4-9.4s-9.4,4.209-9.4,9.4c0,15.341-12.481,27.823-27.822,27.823c-15.341,0-27.823-12.481-27.823-27.823
			c0-15.292,12.404-27.74,27.679-27.818h51.973c5.193,0,9.4-4.209,9.4-9.4s-4.207-9.4-9.4-9.4h-51.755
			c-0.025,0-0.049-0.004-0.073-0.004c-25.708,0-46.623,20.914-46.623,46.622s20.912,46.623,46.62,46.623h194.383
			c25.707,0,46.622-20.916,46.622-46.623S378.899,193.771,353.193,193.771z M353.193,268.215c-15.341,0-27.822-12.481-27.822-27.823
			c0-15.292,12.403-27.74,27.677-27.818h0.29c15.273,0.078,27.676,12.526,27.676,27.818
			C381.015,255.733,368.534,268.215,353.193,268.215z"/>
	</g>
</g>
<g>
	<g>
		<path d="M502.058,29.694L351.753,0.176c-2.76-0.54-5.614,0.179-7.783,1.964c-0.261,0.214-0.508,0.444-0.742,0.683l-0.001-0.001
			c-23.159,23.64-54.135,36.66-87.226,36.66c-33.078,0-64.043-13.01-87.197-36.631l-0.001-0.001
			c-0.009-0.009-0.019-0.018-0.028-0.028l-0.001,0.001c-0.234-0.239-0.48-0.467-0.742-0.683c-2.169-1.786-5.027-2.505-7.783-1.964
			L9.944,29.694c-4.409,0.866-7.589,4.73-7.589,9.223v136.885c0,2.8,1.248,5.453,3.404,7.239c2.156,1.786,4.997,2.519,7.747,1.997
			l48.368-9.166v186.464c0,82.526,67.134,149.666,149.654,149.666h88.948c82.518,0,149.652-67.14,149.652-149.666V175.871
			l48.369,9.166c2.755,0.524,5.59-0.209,7.747-1.997c2.156-1.786,3.404-4.439,3.404-7.239V38.917
			C509.647,34.424,506.468,30.56,502.058,29.694z M171.461,30.142c24.241,18.267,53.589,28.141,84.54,28.141
			c30.951-0.001,60.299-9.874,84.54-28.142v6.1c0,46.615-37.925,84.54-84.54,84.54c-46.615,0-84.54-37.925-84.54-84.54V30.142z
			 M81.037,372.098c64.393,4.773,115.965,56.346,120.737,120.739C137.382,488.07,85.808,436.495,81.037,372.098z M291.37,493.201
			h-70.736c-1.362-21.87-7.439-42.479-17.228-60.826c15.124-11.338,33.533-17.519,52.601-17.519
			c19.072,0,37.477,6.181,52.593,17.519C298.808,450.721,292.731,471.331,291.37,493.201z M310.23,492.839
			c4.771-64.393,56.343-115.965,120.735-120.739C426.193,436.495,374.62,488.07,310.23,492.839z M490.847,164.454l-48.369-9.166
			c-2.747-0.523-5.59,0.211-7.747,1.997c-2.156,1.786-3.404,4.439-3.404,7.239v188.716c-46.546,2.9-87.397,27.165-112.827,63.088
			c-18.094-13.129-39.91-20.273-62.494-20.273c-22.58,0-44.399,7.145-62.504,20.273c-25.431-35.924-66.282-60.189-112.829-63.089
			V164.523c0-2.8-1.247-5.453-3.404-7.239c-1.7-1.409-3.825-2.161-5.996-2.161c-0.583,0-1.169,0.054-1.75,0.164l-48.368,9.166
			V46.651l131.505-25.825v15.415c0,56.982,46.358,103.34,103.34,103.34s103.34-46.359,103.34-103.34V20.826l131.505,25.825V164.454z
			"/>
	</g>
</g>
<g>
</g>
<g>
</g>
<g>
</g>
<g>
</g>
<g>
</g>
<g>
</g>
<g>
</g>
<g>
</g>
<g>
</g>
<g>
</g>
<g>
</g>
<g>
</g>
<g>
</g>
<g>
</g>
<g>
</g>
</svg>
