<?xml version="1.0" encoding="iso-8859-1"?>
<!-- Generator: Adobe Illustrator 18.0.0, SVG Export Plug-In . SVG Version: 6.00 Build 0)  -->
<!DOCTYPE svg PUBLIC "-//W3C//DTD SVG 1.1//EN" "http://www.w3.org/Graphics/SVG/1.1/DTD/svg11.dtd">
<svg version="1.1" id="Capa_1" xmlns="http://www.w3.org/2000/svg" xmlns:xlink="http://www.w3.org/1999/xlink" x="0px" y="0px"
	 viewBox="0 0 349.281 349.281" style="enable-background:new 0 0 349.281 349.281;" xml:space="preserve">
<g id="Maquillaje">
	<path d="M299.778,195.063c-1.178,0-2.329,0.346-3.311,0.996l-36.75,24.313l-31.057,7.683h-34.257V101.92V74.474
		c0-10.621-8.641-19.262-19.262-19.262h-49.499c-10.621,0-19.262,8.641-19.262,19.262v27.446v126.135h-8.063v-67.588
		c0-4.263-1.592-8.154-4.198-11.138v-31.917c0-2.343-1.346-4.367-3.304-5.355V67.206c0-3.313-2.687-6-6-6h-0.295
		c-19.388,0-35.161,15.772-35.161,35.158v15.693c-1.958,0.988-3.305,3.012-3.305,5.355v31.917
		c-2.606,2.984-4.198,6.874-4.198,11.137v67.588h-8.328H6c-3.313,0-6,2.686-6,6v21.022c0,3.313,2.687,6,6,6h27.529h195.132
		l31.055,7.683l36.751,24.313c0.981,0.65,2.133,0.996,3.311,0.996c27.296,0,49.503-22.207,49.503-49.503
		C349.281,217.27,327.074,195.063,299.778,195.063z M58.056,143.5v-20.087H82.12V143.5h-0.768H58.824H58.056z M86.318,160.467
		v66.462H53.857v-66.462c0-2.739,2.229-4.967,4.967-4.967h22.528C84.091,155.5,86.318,157.728,86.318,160.467z M78.816,73.917
		v37.496H61.36V96.364C61.36,85.563,68.795,76.464,78.816,73.917z M223.392,249.077H39.529v-9.022h72.852h76.022h34.988V249.077z
		 M182.403,111.413h-64.022v-3.492h64.022V111.413z M118.381,123.413h64.022v103.517h-64.022V123.413z M125.643,67.212h49.499
		c4.004,0,7.262,3.258,7.262,7.262V95.92h-64.022V74.474C118.381,70.47,121.639,67.212,125.643,67.212z M12,249.077v-9.022h15.529
		v9.022H12z M235.392,238.751l20.772-5.139v21.907l-20.772-5.139V238.751z M301.522,282.029l-33.358-22.069v-30.788l33.358-22.069
		c19.873,0.914,35.759,17.368,35.759,37.463C337.281,264.661,321.396,281.115,301.522,282.029z"/>
</g>
<g>
</g>
<g>
</g>
<g>
</g>
<g>
</g>
<g>
</g>
<g>
</g>
<g>
</g>
<g>
</g>
<g>
</g>
<g>
</g>
<g>
</g>
<g>
</g>
<g>
</g>
<g>
</g>
<g>
</g>
</svg>
