<?xml version="1.0" encoding="iso-8859-1"?>
<!-- Generator: Adobe Illustrator 16.0.0, SVG Export Plug-In . SVG Version: 6.00 Build 0)  -->
<!DOCTYPE svg PUBLIC "-//W3C//DTD SVG 1.1//EN" "http://www.w3.org/Graphics/SVG/1.1/DTD/svg11.dtd">
<svg version="1.1" id="Capa_1" xmlns="http://www.w3.org/2000/svg" xmlns:xlink="http://www.w3.org/1999/xlink" x="0px" y="0px"
	 width="316.378px" height="316.378px" viewBox="0 0 316.378 316.378" style="enable-background:new 0 0 316.378 316.378;"
	 xml:space="preserve">
<g>
	<g>
		<path d="M305.074,50.847H11.299C5.059,50.847,0,55.906,0,62.148v192.085c0,6.239,5.059,11.298,11.299,11.298h293.78
			c6.24,0,11.299-5.059,11.299-11.298V62.148C316.373,55.906,311.314,50.847,305.074,50.847z M42.722,248.936
			c-12.678,0-22.949-10.278-22.949-22.949s10.276-22.949,22.949-22.949c12.671,0,22.955,10.278,22.955,22.949
			S55.401,248.936,42.722,248.936z M42.722,181.139c-12.678,0-22.949-10.273-22.949-22.949c0-12.674,10.276-22.95,22.949-22.95
			c12.671,0,22.955,10.276,22.955,22.95C65.677,170.865,55.401,181.139,42.722,181.139z M42.722,113.347
			c-12.678,0-22.955-10.276-22.955-22.949c0-12.671,10.276-22.947,22.955-22.947c12.679,0,22.947,10.276,22.947,22.947
			C65.669,103.071,55.401,113.347,42.722,113.347z M99.218,248.936c-12.679,0-22.95-10.278-22.95-22.949s10.276-22.949,22.95-22.949
			s22.949,10.278,22.949,22.949S111.897,248.936,99.218,248.936z M99.218,181.139c-12.679,0-22.95-10.273-22.95-22.949
			c0-12.674,10.276-22.95,22.95-22.95s22.949,10.276,22.949,22.95C122.167,170.865,111.897,181.139,99.218,181.139z M99.218,113.347
			c-12.679,0-22.95-10.276-22.95-22.949c0-12.671,10.276-22.947,22.95-22.947s22.949,10.276,22.949,22.947
			C122.167,103.071,111.897,113.347,99.218,113.347z M155.717,248.936c-12.679,0-22.95-10.278-22.95-22.949
			s10.276-22.949,22.95-22.949c12.671,0,22.949,10.278,22.949,22.949S168.388,248.936,155.717,248.936z M155.717,181.139
			c-12.679,0-22.95-10.273-22.95-22.949c0-12.674,10.276-22.95,22.95-22.95c12.671,0,22.949,10.276,22.949,22.95
			C178.666,170.865,168.388,181.139,155.717,181.139z M155.717,113.347c-12.679,0-22.95-10.276-22.95-22.949
			c0-12.671,10.276-22.947,22.95-22.947c12.671,0,22.949,10.276,22.949,22.947C178.666,103.071,168.388,113.347,155.717,113.347z
			 M212.21,248.936c-12.676,0-22.949-10.278-22.949-22.949s10.278-22.949,22.949-22.949c12.676,0,22.96,10.278,22.96,22.949
			S224.886,248.936,212.21,248.936z M189.261,158.189c0-12.679,10.273-22.95,22.949-22.95c12.671,0,22.949,10.276,22.949,22.95
			c0,12.676-10.278,22.949-22.949,22.949C199.534,181.139,189.261,170.865,189.261,158.189z M212.21,113.347
			c-12.676,0-22.949-10.276-22.949-22.949c0-12.671,10.278-22.947,22.949-22.947c12.676,0,22.96,10.276,22.96,22.947
			C235.17,103.071,224.886,113.347,212.21,113.347z M296.603,236.343c0,6.239-7.249,11.299-16.196,11.299h-8.099
			c-8.943,0-16.188-5.06-16.188-11.299V81.921c0-6.242,7.244-11.302,16.188-11.302h8.099c8.947,0,16.196,5.06,16.196,11.302V236.343
			z"/>
		<path d="M287.334,99.702c-5.592-18.493-7.643-15.694-8.368-20.8c-0.228-1.675-6.073-1.67-6.182,0.026
			c-0.301,4.583-2.637,6.641-6.411,15.602c-4.158,9.862-3.387,17.513,0,20.821h-1.206v44.299c-0.922,0.88-1.507,2.112-1.507,3.49
			v73.809h25.403V163.14c0-1.383-0.59-2.61-1.512-3.49v-44.081C289.446,113.311,290.053,108.697,287.334,99.702z M282.249,154.806
			h-11.78v-34.158h11.78V154.806z"/>
		<path d="M42.722,72.745c-9.729,0-17.652,7.917-17.652,17.647s7.917,17.647,17.652,17.647c9.73,0,17.645-7.917,17.645-17.647
			C60.375,80.662,52.457,72.745,42.722,72.745z"/>
		<path d="M212.21,72.745c-9.725,0-17.646,7.917-17.646,17.647s7.922,17.647,17.646,17.647c9.734,0,17.657-7.917,17.657-17.647
			C229.857,80.662,221.944,72.745,212.21,72.745z"/>
		<path d="M155.717,140.542c-9.73,0-17.647,7.918-17.647,17.647s7.917,17.646,17.647,17.646c9.729,0,17.646-7.917,17.646-17.646
			S165.446,140.542,155.717,140.542z"/>
		<path d="M99.218,208.334c-9.73,0-17.647,7.918-17.647,17.647s7.917,17.646,17.647,17.646c9.729,0,17.647-7.917,17.647-17.646
			S108.948,208.334,99.218,208.334z"/>
		<path d="M212.21,208.334c-9.725,0-17.646,7.918-17.646,17.647s7.922,17.646,17.646,17.646c9.734,0,17.657-7.917,17.657-17.646
			S221.944,208.334,212.21,208.334z"/>
	</g>
</g>
<g>
</g>
<g>
</g>
<g>
</g>
<g>
</g>
<g>
</g>
<g>
</g>
<g>
</g>
<g>
</g>
<g>
</g>
<g>
</g>
<g>
</g>
<g>
</g>
<g>
</g>
<g>
</g>
<g>
</g>
</svg>
