<?xml version="1.0" encoding="iso-8859-1"?>
<!-- Generator: Adobe Illustrator 18.0.0, SVG Export Plug-In . SVG Version: 6.00 Build 0)  -->
<!DOCTYPE svg PUBLIC "-//W3C//DTD SVG 1.1//EN" "http://www.w3.org/Graphics/SVG/1.1/DTD/svg11.dtd">
<svg version="1.1" id="Capa_1" xmlns="http://www.w3.org/2000/svg" xmlns:xlink="http://www.w3.org/1999/xlink" x="0px" y="0px"
	 viewBox="0 0 433.776 433.776" style="enable-background:new 0 0 433.776 433.776;" xml:space="preserve">
<path style="fill:#231F20;" d="M392.413,230.158c7.094-10.354,10.83-22.366,10.83-35.025c0-13.11-4.006-25.528-11.6-36.126
	c15.557-35.022,0.419-76.403-34.386-92.97c-0.08-0.038-0.161-0.074-0.242-0.109L295.89,40.086c0.154-1.651,0.24-3.318,0.24-5
	c0-12.035-3.978-23.386-11.504-32.826C283.488,0.831,281.761,0,279.935,0H153.841c-1.826,0-3.553,0.831-4.691,2.26
	c-7.526,9.441-11.504,20.792-11.504,32.826c0,1.682,0.086,3.349,0.24,5L76.761,65.928c-0.082,0.035-0.162,0.071-0.242,0.109
	c-34.805,16.567-49.942,57.949-34.386,92.97c-7.594,10.598-11.6,23.017-11.6,36.126c0,12.659,3.736,24.671,10.83,35.025
	c-7.094,10.352-10.83,22.366-10.83,35.026c0,12.659,3.736,24.672,10.83,35.025c-7.094,10.354-10.83,22.367-10.83,35.025
	c0,12.288,3.518,23.969,10.212,34.114c-3.699,8.123-5.598,16.8-5.598,25.835c0,3.314,2.687,6,6,6h51.972v26.592c0,3.314,2.687,6,6,6
	h236.766c1.591,0,3.118-0.632,4.243-1.757c1.125-1.125,1.757-2.652,1.757-4.243l-0.002-26.591h50.745c3.313,0,6-2.686,6-6
	c0-9.036-1.898-17.712-5.598-25.835c6.694-10.145,10.212-21.826,10.212-34.114c0-12.659-3.736-24.672-10.83-35.025
	c7.094-10.354,10.83-22.367,10.83-35.025C403.242,252.524,399.507,240.511,392.413,230.158z M382.256,363.848h-38.604
	c1.837-5.395,2.788-11.092,2.788-16.953c0-10.484-3.021-20.449-8.777-29.086c2.393-3.59,4.309-7.411,5.736-11.402h38.706
	c5.982,8.485,9.138,18.385,9.138,28.828C391.242,345.59,388.14,355.412,382.256,363.848z M51.52,363.848
	c-5.884-8.437-8.986-18.258-8.986-28.613c0-10.524,3.203-20.497,9.276-29.025h39.882c1.434,4.063,3.377,7.95,5.81,11.6
	c-5.755,8.637-8.777,18.602-8.777,29.086c0,5.861,0.951,11.558,2.788,16.953H51.52z M51.81,166.106h37.288
	c-0.243,2.066-0.373,4.159-0.373,6.273c0,10.485,3.022,20.45,8.776,29.086c-4.645,6.97-7.5,14.809-8.432,23.086H52.085
	c-6.255-8.613-9.551-18.733-9.551-29.418C42.533,184.608,45.736,174.634,51.81,166.106z M381.966,166.106
	c6.073,8.528,9.276,18.503,9.276,29.027c0,10.684-3.296,20.805-9.551,29.418h-35.596c-0.932-8.277-3.787-16.116-8.432-23.086
	c5.754-8.636,8.776-18.601,8.776-29.086c0-2.115-0.13-4.208-0.373-6.273H381.966z M381.828,294.407h-35.7
	c0.2-1.875,0.312-3.769,0.312-5.684c0-10.485-3.022-20.45-8.776-29.086c4.645-6.97,7.5-14.809,8.432-23.086h36.146
	c5.893,8.44,9.001,18.269,9.001,28.633C391.242,275.789,387.992,285.835,381.828,294.407z M327.224,207.465
	c4.725,6.814,7.215,14.736,7.215,23.086c0,8.35-2.491,16.272-7.215,23.086H107.94c-4.725-6.814-7.215-14.736-7.215-23.086
	c0-8.35,2.491-16.272,7.215-23.086H327.224z M107.94,311.809c-4.725-6.814-7.215-14.736-7.215-23.086
	c0-8.35,2.491-16.272,7.215-23.086h219.284c4.725,6.814,7.215,14.736,7.215,23.086c0,8.35-2.491,16.272-7.215,23.086H107.94z
	 M327.224,149.293c4.725,6.814,7.215,14.736,7.215,23.086c0,8.35-2.491,16.272-7.215,23.086H107.94
	c-4.725-6.814-7.215-14.736-7.215-23.086c0-8.35,2.491-16.272,7.215-23.086H327.224z M51.534,236.551H89.07
	c0.932,8.277,3.787,16.116,8.432,23.086c-5.754,8.636-8.776,18.601-8.776,29.086c0,1.847,0.105,3.676,0.291,5.486H51.81
	c-6.073-8.528-9.276-18.501-9.276-29.025C42.533,254.82,45.641,244.991,51.534,236.551z M107.941,369.983
	c-4.725-6.814-7.216-14.737-7.216-23.088c0-8.348,2.491-16.27,7.216-23.086h219.283c4.725,6.816,7.216,14.738,7.216,23.086
	c0,8.351-2.491,16.274-7.216,23.088H107.941z M81.559,76.927l58.873-24.89c1.936,5.684,4.855,11.033,8.717,15.875
	c2.066,2.591,5.841,3.017,8.432,0.95c2.591-2.066,3.017-5.841,0.95-8.432c-5.813-7.291-8.886-16.055-8.886-25.345
	c0-4.687,0.783-9.241,2.305-13.539c3.714,5.358,9.833,8.911,16.783,9.111c0.202,0.021,0.407,0.031,0.614,0.031h33.545
	c4.342,0,7.875,3.532,7.875,7.873c0,0.319,0.032,0.63,0.08,0.935V92.15c0,3.313,2.686,6,6,6c3.313,0,6-2.687,6-6V39.498
	c0.048-0.305,0.08-0.616,0.08-0.935c0-4.341,3.533-7.873,7.875-7.873h33.545c0.207,0,0.412-0.011,0.614-0.031
	c6.982-0.202,13.128-3.784,16.837-9.184c1.539,4.32,2.331,8.898,2.331,13.611c0,9.291-3.073,18.055-8.886,25.345
	c-2.066,2.591-1.641,6.366,0.95,8.432c1.105,0.881,2.425,1.309,3.737,1.309c1.763,0,3.51-0.773,4.695-2.259
	c3.862-4.842,6.782-10.191,8.717-15.875l58.874,24.89c28.831,13.801,41.363,48.119,28.477,77.179h-37.516
	c-1.521-4.096-3.563-8.006-6.106-11.667c2.63-3.795,4.752-7.895,6.307-12.237c1.117-3.12-0.506-6.555-3.626-7.672
	c-3.118-1.115-6.554,0.506-7.672,3.626c-1.434,4.005-3.491,7.746-6.106,11.138H109.191c-2.615-3.393-4.672-7.133-6.106-11.138
	c-1.118-3.119-4.55-4.741-7.672-3.626c-3.12,1.117-4.743,4.552-3.626,7.672c1.555,4.343,3.677,8.442,6.307,12.237
	c-2.543,3.662-4.586,7.571-6.106,11.667H53.082C40.196,125.046,52.728,90.729,81.559,76.927z M50.986,375.848h34.276l-7.565,13.336
	H47.495C48.033,384.582,49.208,380.124,50.986,375.848z M222.848,421.776v-9.178c0-3.314-2.687-6-6-6c-3.314,0-6,2.686-6,6v9.178
	H105.119v-20.871c0-6.586,1.245-12.932,3.674-18.922H326.21c2.429,5.991,3.673,12.337,3.673,18.922l0.001,20.871H222.848z
	 M356.078,389.184l-7.565-13.336h34.276c1.778,4.276,2.953,8.734,3.492,13.336H356.078z"/>
<g>
</g>
<g>
</g>
<g>
</g>
<g>
</g>
<g>
</g>
<g>
</g>
<g>
</g>
<g>
</g>
<g>
</g>
<g>
</g>
<g>
</g>
<g>
</g>
<g>
</g>
<g>
</g>
<g>
</g>
</svg>
