<?xml version="1.0" encoding="iso-8859-1"?>
<!-- Generator: Adobe Illustrator 19.1.0, SVG Export Plug-In . SVG Version: 6.00 Build 0)  -->
<svg version="1.1" id="Capa_1" xmlns="http://www.w3.org/2000/svg" xmlns:xlink="http://www.w3.org/1999/xlink" x="0px" y="0px"
	 viewBox="0 0 289.739 289.739" style="enable-background:new 0 0 289.739 289.739;" xml:space="preserve">
<g>
	<g>
		<path d="M270.423,15.694c0-3.018-3.018-5.433-6.036-5.433H25.352c-3.018,0-6.036,2.414-6.036,5.433L0,272.837
			c0,1.811,0.604,3.622,1.811,4.829c1.207,1.207,3.018,1.811,4.225,1.811h111.67c2.414,0,4.829-1.811,6.036-4.225l21.127-66.398
			l21.127,66.398c0.604,2.414,3.018,4.225,6.036,4.225h111.67c1.811,0,3.018-0.604,4.225-1.811c1.207-1.207,1.811-3.018,1.811-4.829
			L270.423,15.694z M258.954,22.334l3.018,38.028H28.37l3.018-38.028H258.954z M176.258,267.404l-25.352-80.282
			c-0.604-2.414-3.018-4.225-6.036-4.225c-2.414,0-4.829,1.811-6.036,4.225l-25.956,80.282H12.072l14.487-194.97h235.413
			l14.487,194.97H176.258z"/>
		<path d="M107.445,53.119c3.018,1.207,6.64,0,7.847-2.414l4.829-9.658h48.893l4.829,9.658c1.207,2.414,3.018,3.622,5.433,3.622
			c1.207,0,1.811,0,2.414-0.604c3.018-1.207,4.225-4.829,2.414-7.847l-6.64-12.676c-1.207-1.811-3.018-3.622-5.433-3.622h-56.741
			c-2.414,0-4.225,1.207-5.433,3.622l-6.64,12.676C103.219,48.29,104.427,51.912,107.445,53.119z"/>
	</g>
</g>
<g>
</g>
<g>
</g>
<g>
</g>
<g>
</g>
<g>
</g>
<g>
</g>
<g>
</g>
<g>
</g>
<g>
</g>
<g>
</g>
<g>
</g>
<g>
</g>
<g>
</g>
<g>
</g>
<g>
</g>
</svg>
